<?xml version="1.0" encoding="UTF-8"?>
<svg xmlns="http://www.w3.org/2000/svg" width="250px" height="250px" viewBox="0 0 283.46 283.46">
	<title>Paris transit icons - Métro Ligne 2</title>
	<circle fill="#0064B0" cx="141.73" cy="141.73" r="141.73"/>
	<path fill="#FFF" d="M194 216.81V191.7h-62c1.91-8.73 17-21.91 24.66-28.94 18.1-16.38 34.49-28.51 34.49-54.25 0-30.64-24.91-46-51.29-46-20.21 0-33.62 6-48.09 18.51l15.74 20.84c3.63-4 12.78-13.61 26-13.61 16.38 0 24.87 10.85 24.87 23.83 0 14.47-10.84 25.33-20.83 34-20 17.44-37.25 33.4-41.08 50.85v19.79z"/>
</svg>