<?xml version="1.0" encoding="UTF-8"?>
<svg xmlns="http://www.w3.org/2000/svg" width="250px" height="250px" viewBox="0 0 283.46 283.46">
	<title>Paris transit icons - Métro Ligne 10</title>
	<circle fill="#E3B32A" cx="141.73" cy="141.73" r="141.73"/>
	<path fill="#25303B" d="M113.66 216.93V66.71H87.48C72.61 78 53.66 88 37.92 94.59l10.2 23c10-4.9 24.49-11.49 33.62-18.73v118.1zM244.45 141.6c0-34.68-8.94-79.36-54.27-79.36s-55.11 44.68-55.11 79.36S144 221 189.33 221s55.12-44.67 55.12-79.36m-32.55 0c0 14.89-.87 54.26-22.14 54.26s-22.34-39.16-22.34-54.26c0-15.32.64-54 22.34-54 21.49 0 22.14 38.31 22.14 54.05"/>
</svg>