<?xml version="1.0" encoding="UTF-8"?>
<svg xmlns="http://www.w3.org/2000/svg" width="250px" height="250px" viewBox="0 0 283.46 283.46">
	<title>Paris transit icons - Métro Ligne 3</title>
	<circle fill="#9F9825" cx="141.73" cy="141.73" r="141.73"/>
	<path fill="#FFF" d="M194.35 171.57c0-21.06-12.55-33.83-29.16-37v-.42c16-5.95 24.27-18.3 24.27-33.83 0-20-17.47-38.3-48.09-38.3-18.94 0-32.78 4.89-45.55 13.4l10.86 22.13a41.6 41.6 0 0 1 27.88-10.85c15.75 0 23 8.72 23 18.29 0 11.5-9.13 19.17-23.82 19.17H118V149h15.5c15.32 0 28.5 6 28.5 23.19 0 12.78-10.85 23-28.29 23-12.77 0-23.2-5.32-29.59-9.78l-11.7 23.19c10 5.95 21.92 11.26 43.42 11.26 34.88 0 58.51-21.9 58.51-48.3"/>
</svg>