<?xml version="1.0" encoding="UTF-8"?>
<svg xmlns="http://www.w3.org/2000/svg" width="250px" height="250px" viewBox="0 0 283.46 283.46">
	<title>Paris transit icons - Métro Ligne 9</title>
	<circle fill="#D5C900" cx="141.73" cy="141.73" r="141.73"/>
	<path fill="#25303B" d="M196.72 131.39c0-39.79-14.72-68.31-55.72-68.31-31.49 0-51.49 22.13-51.49 52.14 0 28.09 20 44.47 44.89 44.47 16.18 0 26-5.74 31.07-10.21-2.13 30.21-17.45 47-38.51 47a58.1 58.1 0 0 1-20.65-3.62l-4.67 25.54a99.18 99.18 0 0 0 22.53 2.6c48.08 0 72.55-37.45 72.55-89.58m-30.86-16.6c0 4.47 0 10.42-1.7 13-3 4.68-10.64 8.3-20.22 8.3-14.88 0-24.25-10.22-24.25-24.26 0-13 7.67-25.1 22.56-25.1 15.31 0 23.61 13.83 23.61 28.08"/>
</svg>