<?xml version="1.0" encoding="UTF-8"?>
<svg xmlns="http://www.w3.org/2000/svg" width="250px" height="250px" viewBox="0 0 283.46 283.46">
	<title>Paris transit icons - Métro Ligne 5</title>
	<circle fill="#F28E42" cx="141.73" cy="141.73" r="141.73"/>
	<path fill="#25303B" d="M192.66 168.3c0-22.56-16.59-45.74-57.66-47.66-1.49 0-3.39-.21-4.25-.21l2.12-28.51h54V66.8H108l-6 78.09c4.91 0 14.91.21 23.42.21 27.65.43 34.89 15.33 34.89 26.18 0 17.66-14.67 24.69-26.37 24.69s-20.22-3.84-28.52-9.58L93.3 209.78c11.49 7 24.9 10.87 42.34 10.87 34.26 0 57-23.62 57-52.35"/>
</svg>