<?xml version="1.0" encoding="UTF-8"?>
<svg xmlns="http://www.w3.org/2000/svg" width="250px" height="250px" viewBox="0 0 283.46 283.46">
	<title>Paris transit icons - Métro Ligne 12</title>
	<circle fill="#00814F" cx="141.73" cy="141.73" r="141.73"/>
	<path fill="#FFF" d="M111.92 216.89V66.68H85.74C70.86 78 51.92 88 36.16 94.54l10.23 23c10-4.9 24.47-11.54 33.61-18.75v118.1zM234.61 216.89v-25.11H172.7c1.91-8.72 17-21.9 24.67-28.94 18.09-16.37 34.48-28.5 34.48-54.25 0-30.64-24.9-46-51.29-46-20.21 0-33.61 6-48.09 18.52L148.22 102c3.62-4 12.77-13.61 26-13.61 16.38 0 24.87 10.84 24.87 23.83 0 14.47-10.83 25.32-20.83 34-20 17.45-37.25 33.4-41.08 50.85v19.79z"/>
</svg>