<?xml version="1.0" encoding="UTF-8"?>
<svg xmlns="http://www.w3.org/2000/svg" width="250px" height="250px" viewBox="0 0 283.46 283.46">
	<title>Paris transit icons - Métro Ligne 6</title>
	<circle fill="#83C491" cx="141.73" cy="141.73" r="141.73"/>
	<path fill="#25303B" d="M192.86 168.86c0-28.09-20-44.46-44.9-44.46-16.18 0-26 5.74-31.06 10.19 2.13-30.21 17.44-47 38.51-47 8.72 0 16.6 1.91 20.64 3.61l4.68-25.53a100.32 100.32 0 0 0-22.56-2.55c-48.08 0-72.55 37.45-72.55 89.58 0 39.79 14.68 68.3 55.75 68.3 31.48 0 51.49-22.12 51.49-52.13m-30.22 3.4c0 13-7.66 25.11-22.56 25.11-15.32 0-23.61-13.82-23.61-28.09 0-4.47 0-10.43 1.7-13 3-4.68 10.63-8.3 20.21-8.3 14.9 0 24.26 10.22 24.26 24.26"/>
</svg>