<?xml version="1.0" encoding="UTF-8"?>
<svg xmlns="http://www.w3.org/2000/svg" width="250px" height="250px" viewBox="0 0 283.46 283.46">
	<title>Paris transit icons - Métro Ligne 13</title>
	<circle fill="#98D4E2" cx="141.73" cy="141.73" r="141.73"/>
	<path fill="#25303B" d="M113.82 216.65V66.43H87.65C72.76 77.7 53.83 87.71 38.07 94.3l10.22 23c10-4.9 24.47-11.49 33.62-18.73v118.1zM236.73 172c0-21.08-12.55-33.84-29.16-37v-.42c16-5.95 24.27-18.29 24.27-33.82 0-20-17.46-38.31-48.09-38.31-18.94 0-32.77 4.89-45.55 13.4l10.87 22.14a41.57 41.57 0 0 1 27.87-10.86c15.74 0 23 8.73 23 18.31 0 11.49-9.13 19.15-23.82 19.15h-15.77v24.81h15.52c15.33 0 28.51 6 28.51 23.2 0 12.77-10.85 23-28.29 23-12.77 0-23.2-5.31-29.57-9.78L134.8 209c10 5.95 21.92 11.26 43.42 11.26 34.89 0 58.51-21.9 58.51-48.29"/>
</svg>