<?xml version="1.0" encoding="UTF-8"?>
<svg xmlns="http://www.w3.org/2000/svg" width="250px" height="250px" viewBox="0 0 283.46 283.46">
	<title>Paris transit icons - Métro Ligne 7 bis</title>
	<circle fill="#83C491" cx="141.73" cy="141.73" r="141.73"/>
	<path fill="#25303B" d="M150.75 91.06V66.59H45.68V91.7h72.95L82 159.76c-13.18 24.46-18.5 37.21-18.5 57h34.3c0-23.6 20-68.49 53-125.7M194 163.38c0-10.5-4.73-22.63-16.12-22.63-5.53 0-8.86 2.85-11.79 7.08v-22.46h-11.48v60.23h11.07v-2A14.65 14.65 0 0 0 175 187c13.9 0 19-13.83 19-23.6m-11.88 1.71c0 5.94-1.8 13.84-9.12 13.84-5.21 0-7-2.69-7-5.7V158.5c0-2.53.24-3.75 2.19-5.62a7.35 7.35 0 0 1 5.29-2.2c7.24 0 8.63 8.55 8.63 14.41M215.41 130.58c0-3.5-2.44-6-6.35-6s-6.43 2.52-6.43 6 2.53 6 6.43 6 6.35-2.52 6.35-6m-.73 11.56h-11.4v43.44h11.4zM255.36 172.57c0-7.24-4.39-10.57-10.58-12.85l-3.78-1.39c-2.12-.73-5.13-2-5.13-4.64 0-1.95 1.39-4.31 6-4.31a17.54 17.54 0 0 1 8.79 2.6l3.5-8.38a25.69 25.69 0 0 0-11.72-2.85c-10.17 0-17.09 6.52-17.09 14.73 0 6.35 3.75 9.69 9.36 11.89l3.58 1.38c2.36.89 6.43 2 6.43 5.29 0 3.41-3.66 4.47-6.67 4.47a18.88 18.88 0 0 1-10.18-3.25l-3.49 8.38a26.42 26.42 0 0 0 12.74 3.36c11.4 0 18.24-5.95 18.24-14.41"/>
</svg>