<?xml version="1.0" encoding="UTF-8"?>
<svg xmlns="http://www.w3.org/2000/svg" width="250px" height="250px" viewBox="0 0 283.46 283.46">
	<title>Paris transit icons - Métro Ligne 3 bis</title>
	<circle fill="#98D4E2" cx="141.73" cy="141.73" r="141.73"/>
	<path fill="#25303B" d="M145.39 170.94c0-21.06-12.54-33.83-29.13-37v-.42c16-5.94 24.25-18.29 24.25-33.81 0-20-17.44-38.29-48.07-38.29-18.94 0-32.75 4.89-45.54 13.4l10.87 22.11a41.59 41.59 0 0 1 27.87-10.86c15.73 0 23 8.73 23 18.3 0 11.48-9.14 19.15-23.82 19.15H69v24.87h15.57c15.31 0 28.5 6 28.5 23.19 0 12.76-10.84 23-28.3 23-12.75 0-23.17-5.32-29.55-9.79L43.5 208c10 5.94 21.92 11.27 43.4 11.27 34.89 0 58.49-21.9 58.49-48.28M200.81 143.27c0-10.5-4.72-22.63-16.12-22.63-5.54 0-8.88 2.84-11.8 7.07v-22.45H161.4v60.23h11.07v-2a14.73 14.73 0 0 0 9.28 3.34c13.92 0 19.06-13.83 19.06-23.6M188.92 145c0 5.94-1.79 13.83-9.12 13.83-5.21 0-7-2.68-7-5.69v-14.76c0-2.52.25-3.75 2.2-5.61a7.33 7.33 0 0 1 5.29-2.2c7.25 0 8.63 8.54 8.63 14.41M222.21 110.47c0-3.5-2.44-6-6.36-6s-6.42 2.52-6.42 6 2.52 6 6.42 6 6.36-2.53 6.36-6m-.74 11.53h-11.39v43.45h11.39zM262.16 152.46c0-7.24-4.4-10.58-10.58-12.86l-3.82-1.38c-2.12-.73-5.13-2-5.13-4.64 0-2 1.39-4.31 6-4.31a17.41 17.41 0 0 1 8.78 2.6l3.51-8.38a25.69 25.69 0 0 0-11.72-2.85c-10.18 0-17.1 6.51-17.1 14.73 0 6.35 3.75 9.69 9.38 11.88l3.57 1.38c2.37.9 6.42 2 6.42 5.29 0 3.42-3.65 4.48-6.66 4.48a19 19 0 0 1-10.19-3.26l-3.5 8.39a26.68 26.68 0 0 0 12.8 3.34c11.39 0 18.22-6 18.22-14.41"/>
</svg>