<?xml version="1.0" encoding="UTF-8"?>
<svg xmlns="http://www.w3.org/2000/svg" width="250px" height="250px" viewBox="0 0 283.46 283.46">
	<title>Paris transit icons - Métro Ligne 8</title>
	<circle fill="#CEADD2" cx="141.73" cy="141.73" r="141.73"/>
	<path fill="#25303B" d="M195.36 175c0-19.8-12.12-32.57-26-39.14 14.05-8.53 21.28-20.43 21.28-34.49 0-25.75-21.92-38.73-48.32-38.73-25.72 0-48.29 17.24-48.29 42.14 0 15.54 8.1 25.75 21.07 33.83-14.47 7.44-25.75 20-25.75 40 0 22.77 18.94 42.75 52.33 42.75 30.86 0 53.63-17.86 53.63-46.37M162 103.32c0 9.36-8.51 19.15-16.4 22.76-9.57-4-21.9-11.69-21.9-24 0-10.43 7.44-17.66 19.14-17.66 12.36 0 19.16 8.5 19.16 18.94m2.34 74c0 11.92-7.87 21.91-22.14 21.91-14.46 0-22.55-11.69-22.55-24 0-11.71 9.78-22.34 19.57-26.18 12.78 6.39 25.12 14.68 25.12 28.31"/>
</svg>