<svg width="250" height="250" viewBox="0 0 250 250" fill="none" xmlns="http://www.w3.org/2000/svg">
<g clip-path="url(#clip0_17_16)">
<path d="M125 242.078C189.66 242.078 242.078 189.66 242.078 125C242.078 60.34 189.66 7.92261 125 7.92261C60.34 7.92261 7.92261 60.34 7.92261 125C7.92261 189.66 60.34 242.078 125 242.078Z" stroke="#0A0082" stroke-width="15.8451"/>
<path d="M186.84 180.59V71.7429C186.84 65.5017 183.407 58.9524 173.107 58.9524C165.317 58.9524 162.192 62.3855 158.768 69.2429L125.079 139.428H124.771L90.7658 69.2429C87.3327 62.3855 84.2165 58.9788 76.4172 58.9788C66.1267 58.9788 62.6936 65.5017 62.6936 71.7429V180.59C62.6936 186.523 67.3767 189.956 72.9929 189.956C77.9753 189.956 83.5563 186.523 83.5563 180.59V99.4718H83.8732L114.789 162.5C116.963 166.901 119.78 169.366 124.771 169.366C129.762 169.366 132.562 166.866 134.745 162.5L165.625 99.4718H165.942V180.563C165.942 186.496 171.549 189.929 176.549 189.929C182.157 189.929 186.84 186.496 186.84 180.563" fill="#0A0082"/>
</g>
<defs>
<clipPath id="clip0_17_16">
<rect width="250" height="250" fill="white"/>
</clipPath>
</defs>
</svg>
