<svg width="2000" height="2000" viewBox="0 0 2000 2000" fill="none" xmlns="http://www.w3.org/2000/svg">
<path d="M944.5 6.04009C949.45 5.58009 974.87 5.32001 1001 5.46001C1027.12 5.61001 1055.03 6.2497 1063 6.8897C1070.97 7.5297 1086.72 8.96013 1098 10.0801C1109.28 11.1901 1125.03 12.9997 1133 14.0997C1140.97 15.1997 1155.6 17.4494 1165.5 19.1094C1175.4 20.7694 1191.15 23.6894 1200.5 25.6094C1209.85 27.5294 1226.5 31.3098 1237.5 34.0098C1248.5 36.7098 1264.7 40.9896 1273.5 43.5196C1282.3 46.0496 1298.5 51.07 1309.5 54.67C1320.5 58.28 1338.5 64.6103 1349.5 68.7403C1360.5 72.8703 1378.5 80.0598 1389.5 84.7198C1400.5 89.3797 1420.97 98.7995 1435 105.649C1449.03 112.499 1468.37 122.44 1478 127.74C1487.62 133.03 1504.05 142.53 1514.5 148.85C1524.95 155.16 1542.28 166.209 1553 173.399C1563.72 180.589 1579.47 191.6 1588 197.88C1596.53 204.15 1610.03 214.47 1618 220.81C1625.97 227.15 1636.78 235.96 1642 240.39C1647.22 244.83 1657.58 253.85 1665 260.43C1672.42 267.02 1689.55 283.46 1703.05 296.95C1716.54 310.45 1732.97 327.57 1739.55 335C1746.12 342.43 1754.01 351.43 1757.07 355C1760.13 358.57 1766.87 366.68 1772.05 373C1777.23 379.32 1788.39 393.73 1796.85 405C1805.32 416.27 1819.29 436.07 1827.89 449C1836.49 461.93 1847.56 479.25 1852.49 487.5C1857.41 495.75 1864.97 508.8 1869.29 516.5C1873.61 524.2 1883.09 542.42 1890.37 557C1897.65 571.58 1906.66 590.48 1910.4 599C1914.14 607.52 1920.26 622.15 1923.99 631.5C1927.73 640.85 1933.36 655.7 1936.5 664.5C1939.64 673.3 1944.88 688.83 1948.14 699C1951.4 709.17 1956.29 725.6 1959 735.5C1961.71 745.4 1965.49 760.02 1967.4 768C1969.31 775.98 1972.44 790.15 1974.37 799.5C1976.3 808.85 1979.23 824.6 1980.89 834.5C1982.55 844.4 1984.83 859.25 1985.95 867.5C1987.08 875.75 1988.88 891.27 1989.95 902C1991.02 912.73 1992.48 929.83 1993.2 940C1993.97 950.93 1994.5 976.51 1994.5 1002.5C1994.5 1028.63 1993.98 1053.61 1993.21 1064C1992.51 1073.62 1991.24 1088.92 1990.41 1098C1989.57 1107.08 1987.77 1122.83 1986.42 1133C1985.06 1143.17 1982.59 1159.6 1980.92 1169.5C1979.25 1179.4 1976.12 1196.05 1973.95 1206.5C1971.79 1216.95 1967.57 1235.17 1964.59 1247C1961.6 1258.83 1956.23 1278.17 1952.65 1290C1949.06 1301.83 1943.45 1319.15 1940.17 1328.5C1936.89 1337.85 1931.52 1352.47 1928.24 1361C1924.95 1369.53 1918.8 1384.6 1914.57 1394.5C1910.34 1404.4 1900.17 1426 1891.98 1442.5C1883.79 1459 1872.18 1481.05 1866.2 1491.5C1860.21 1501.95 1850.11 1518.83 1843.75 1529C1837.38 1539.17 1827.36 1554.47 1821.47 1563C1815.58 1571.53 1804.33 1587.05 1796.47 1597.5C1788.61 1607.95 1777.38 1622.35 1771.51 1629.5C1765.65 1636.65 1755.32 1648.8 1748.57 1656.5C1741.82 1664.2 1728.95 1678.15 1719.99 1687.5C1711.02 1696.85 1696.89 1710.99 1688.59 1718.92C1680.29 1726.86 1666.08 1739.86 1657 1747.82C1647.92 1755.77 1633.08 1768.22 1624 1775.47C1614.92 1782.72 1603 1792.03 1597.5 1796.15C1592 1800.28 1580.75 1808.4 1572.5 1814.2C1564.25 1819.99 1552.1 1828.24 1545.5 1832.53C1538.9 1836.82 1526.75 1844.46 1518.5 1849.51C1510.25 1854.56 1495.17 1863.33 1485 1869.01C1474.83 1874.68 1454.8 1885.11 1440.5 1892.18C1426.2 1899.25 1404.6 1909.25 1392.5 1914.41C1380.4 1919.57 1360.83 1927.38 1349 1931.78C1337.17 1936.18 1319.85 1942.27 1310.5 1945.32C1301.15 1948.38 1286.3 1952.95 1277.5 1955.49C1268.7 1958.03 1253.4 1962.14 1243.5 1964.63C1233.6 1967.11 1218.53 1970.65 1210 1972.49C1201.47 1974.33 1186.85 1977.22 1177.5 1978.9C1168.15 1980.58 1151.05 1983.3 1139.5 1984.94C1127.95 1986.58 1109.28 1988.83 1098 1989.94C1086.72 1991.05 1069.62 1992.53 1060 1993.23C1049.73 1993.98 1024.12 1994.5 998 1994.5C971.6 1994.5 945.97 1993.97 935 1993.2C924.83 1992.48 907.73 1991.01 897 1989.94C886.27 1988.86 870.75 1987.06 862.5 1985.95C854.25 1984.84 838.27 1982.35 827 1980.42C815.73 1978.49 799.08 1975.33 790 1973.4C780.92 1971.46 763.6 1967.39 751.5 1964.34C739.4 1961.3 720.05 1955.96 708.5 1952.48C696.95 1949 679.17 1943.22 669 1939.65C658.83 1936.07 645.1 1931.05 638.5 1928.49C631.9 1925.93 619.52 1920.9 611 1917.31C602.48 1913.72 590.55 1908.54 584.5 1905.79C578.45 1903.04 563.83 1895.96 552 1890.05C540.17 1884.14 522.85 1875.02 513.5 1869.8C504.15 1864.57 489.98 1856.33 482 1851.47C474.02 1846.62 462.32 1839.3 456 1835.2C449.68 1831.09 437.98 1823.2 430 1817.64C422.02 1812.09 408.07 1801.95 399 1795.1C389.93 1788.26 376.2 1777.49 368.5 1771.17C360.8 1764.85 347.52 1753.57 339 1746.12C330.48 1738.66 310.89 1719.95 295.47 1704.53C280.05 1689.11 261.34 1669.53 253.88 1661C246.43 1652.47 235.15 1639.2 228.83 1631.5C222.51 1623.8 211.741 1610.08 204.901 1601C198.051 1591.92 187.911 1577.97 182.351 1570C176.801 1562.03 167.78 1548.53 162.3 1540C156.83 1531.47 148.74 1518.42 144.33 1511C139.92 1503.58 132.58 1490.75 128.01 1482.5C123.45 1474.25 114.471 1456.92 108.061 1444C101.651 1431.08 93.3402 1413.53 89.5802 1405C85.8302 1396.47 79.2501 1380.72 74.9601 1370C70.6801 1359.28 64.1699 1341.95 60.5099 1331.5C56.8499 1321.05 51.0006 1303.05 47.5206 1291.5C44.0407 1279.95 38.7003 1260.6 35.6603 1248.5C32.6103 1236.4 28.5397 1219.08 26.5997 1210C24.6697 1200.92 21.5102 1184.28 19.5802 1173C17.6502 1161.72 15.1599 1145.75 14.0499 1137.5C12.9399 1129.25 11.1302 1113.5 10.0402 1102.5C8.94018 1091.5 7.54029 1075.97 6.91028 1068C6.28028 1060.03 5.55993 1034.83 5.29993 1012C4.93993 980.14 5.20033 964.92 6.45032 946.5C7.34031 933.3 8.7502 915.3 9.5802 906.5C10.4102 897.7 11.9802 883.3 13.0802 874.5C14.1702 865.7 16.65 848.83 18.59 837C20.53 825.17 23.8606 807.17 25.9806 797C28.1006 786.83 31.65 771.08 33.88 762C36.1 752.92 40.2204 737.4 43.0304 727.5C45.8404 717.6 49.95 703.88 52.17 697C54.39 690.13 58.4506 677.98 61.1906 670C63.9305 662.02 69.9001 646.05 74.4601 634.5C79.0101 622.95 86.2206 605.63 90.4806 596C94.7406 586.38 102.89 569.05 108.58 557.5C114.27 545.95 123.81 527.73 129.78 517C135.75 506.27 144.141 491.65 148.441 484.5C152.731 477.35 162.18 462.5 169.43 451.5C176.68 440.5 187.49 424.75 193.45 416.5C199.41 408.25 208.83 395.65 214.38 388.5C219.93 381.35 229.91 368.98 236.55 361C243.2 353.02 255.13 339.31 263.07 330.52C271.01 321.73 286.27 305.75 297 295C307.73 284.26 323.25 269.38 331.5 261.95C339.75 254.51 352.12 243.68 359 237.89C365.87 232.09 376.9 223.06 383.5 217.83C390.1 212.59 402.7 203 411.5 196.52C420.3 190.04 437.4 178.15 449.5 170.09C461.6 162.04 479.15 150.9 488.5 145.33C497.85 139.77 512.25 131.48 520.5 126.92C528.75 122.36 547.65 112.67 562.5 105.39C577.35 98.1197 597.37 88.8098 607 84.7198C616.62 80.6198 632.37 74.2501 642 70.5401C651.62 66.8401 667.37 61.1294 677 57.8594C686.62 54.5894 701.02 49.9396 709 47.5196C716.98 45.0996 732.05 40.8299 742.5 38.0499C752.95 35.2599 769.6 31.1993 779.5 29.0293C789.4 26.8594 803.35 23.9496 810.5 22.5596C817.65 21.1796 830.48 18.9296 839 17.5596C847.52 16.1896 863.5 13.9499 874.5 12.5899C885.5 11.2299 903.73 9.39005 915 8.50005C926.27 7.61006 939.55 6.5001 944.5 6.04009ZM1006.5 152.55C986.15 152.33 962.52 152.54 954 153C945.48 153.47 932.65 154.37 925.5 154.99C918.35 155.62 905.08 157.01 896 158.09C886.92 159.16 872.3 161.199 863.5 162.609C854.7 164.019 838.73 166.96 828 169.14C817.27 171.33 801.52 174.86 793 177C784.48 179.14 770.3 182.97 761.5 185.52C752.7 188.07 737.4 192.86 727.5 196.18C717.6 199.49 700.05 205.94 688.5 210.51C676.95 215.08 659.85 222.28 650.5 226.52C641.15 230.76 628.1 236.93 621.5 240.24C614.9 243.55 603.65 249.42 596.5 253.29C589.35 257.17 576.3 264.61 567.5 269.83C558.7 275.06 544.52 283.89 536 289.46C527.48 295.03 514.65 303.8 507.5 308.94C500.35 314.069 488.65 322.819 481.5 328.359C474.35 333.909 462.87 343.16 456 348.91C449.12 354.67 436.75 365.54 428.5 373.07C420.25 380.6 405.17 395.25 394.981 405.63C384.791 416.01 371.13 430.57 364.62 438C358.1 445.43 347.49 458.02 341.03 466C334.58 473.98 323.99 487.7 317.51 496.5C311.02 505.3 300.211 520.83 293.481 531C286.741 541.17 277.87 555.12 273.75 562C269.63 568.87 262.991 580.35 258.981 587.5C254.971 594.65 246.35 611.3 239.83 624.5C233.31 637.7 224.63 656.37 220.54 666C216.45 675.62 210.78 689.58 207.95 697C205.11 704.42 200.121 718.37 196.851 728C193.581 737.62 188.7 753.15 186.01 762.5C183.31 771.85 179.31 786.7 177.11 795.5C174.91 804.3 171.55 819.15 169.62 828.5C167.7 837.85 165.21 850.9 164.09 857.5C162.97 864.1 161.161 876.02 160.061 884C158.961 891.98 157.38 905.02 156.55 913C155.72 920.98 154.56 933.8 153.97 941.5C153.38 949.2 152.64 970.12 152.32 988C151.97 1007.62 152.201 1029.41 152.901 1043C153.541 1055.37 154.74 1072.7 155.57 1081.5C156.4 1090.3 157.971 1104.47 159.061 1113C160.161 1121.53 162.19 1135.25 163.59 1143.5C164.98 1151.75 167.7 1166.15 169.62 1175.5C171.55 1184.85 174.87 1199.47 177 1208C179.14 1216.53 182.971 1230.7 185.521 1239.5C188.071 1248.3 192.871 1263.6 196.191 1273.5C199.521 1283.4 205.05 1298.7 208.49 1307.5C211.92 1316.3 217.31 1329.58 220.46 1337C223.62 1344.42 231.02 1360.4 236.91 1372.5C242.8 1384.6 251.611 1401.7 256.481 1410.5C261.341 1419.3 269.141 1432.8 273.811 1440.5C278.471 1448.2 287.681 1462.6 294.271 1472.5C300.851 1482.4 312.66 1499.05 320.5 1509.5C328.34 1519.95 339.621 1534.35 345.561 1541.5C351.501 1548.65 361.781 1560.58 368.401 1568C375.021 1575.42 389 1590.06 399.47 1600.53C409.94 1611 424.57 1624.98 432 1631.59C439.43 1638.21 450.9 1648.1 457.5 1653.57C464.1 1659.05 475.13 1667.85 482 1673.13C488.88 1678.41 500.8 1687.21 508.5 1692.69C516.2 1698.17 529.48 1707.16 538 1712.66C546.52 1718.16 559.58 1726.26 567 1730.67C574.42 1735.07 587.48 1742.44 596 1747.04C604.52 1751.64 619.6 1759.32 629.5 1764.11C639.4 1768.9 655.38 1776.18 665 1780.29C674.63 1784.4 689.7 1790.47 698.5 1793.78C707.3 1797.09 722.83 1802.52 733 1805.83C743.17 1809.15 755.33 1813 760 1814.39C764.67 1815.78 777.39 1819.18 788.25 1821.96C799.11 1824.73 818.01 1829 830.25 1831.45C842.49 1833.9 861.73 1837.25 873 1838.89C884.27 1840.53 900.48 1842.58 909 1843.43C917.52 1844.29 930.35 1845.45 937.5 1846C944.65 1846.56 964.67 1847.3 982 1847.64C1001.2 1848.02 1022.48 1847.81 1036.5 1847.11C1049.15 1846.47 1066.7 1845.28 1075.5 1844.46C1084.3 1843.65 1098.7 1842.07 1107.5 1840.96C1116.3 1839.85 1132.72 1837.36 1144 1835.43C1155.28 1833.49 1172.6 1830.11 1182.5 1827.92C1192.4 1825.73 1207.47 1822.1 1216 1819.86C1224.53 1817.62 1239.6 1813.32 1249.5 1810.29C1259.4 1807.27 1275.6 1801.88 1285.5 1798.3C1295.4 1794.73 1310.25 1789.09 1318.5 1785.76C1326.75 1782.43 1340.92 1776.35 1350 1772.24C1359.08 1768.14 1372.35 1761.84 1379.5 1758.26C1386.65 1754.68 1398.35 1748.58 1405.5 1744.7C1412.65 1740.83 1426.38 1732.95 1436 1727.2C1445.63 1721.44 1461.6 1711.33 1471.5 1704.72C1481.4 1698.11 1496.47 1687.52 1505 1681.19C1513.53 1674.86 1527.23 1664.24 1535.45 1657.59C1543.67 1650.94 1556.72 1639.91 1564.45 1633.07C1572.18 1626.23 1588.21 1610.93 1600.08 1599.07C1611.95 1587.21 1626.08 1572.55 1631.48 1566.5C1636.88 1560.45 1646.54 1549.2 1652.94 1541.5C1659.34 1533.8 1667.72 1523.45 1671.57 1518.5C1675.41 1513.55 1682.35 1504.33 1686.99 1498C1691.64 1491.67 1700.67 1478.62 1707.08 1469C1713.48 1459.37 1722.78 1444.75 1727.74 1436.5C1732.69 1428.25 1741.41 1412.95 1747.11 1402.5C1752.8 1392.05 1761.79 1374.28 1767.08 1363C1772.38 1351.72 1778.99 1337.1 1781.78 1330.5C1784.58 1323.9 1789.54 1311.53 1792.81 1303C1796.08 1294.47 1801.72 1278.5 1805.35 1267.5C1808.99 1256.5 1813.56 1241.87 1815.53 1235C1817.49 1228.12 1820.85 1215.53 1822.99 1207C1825.13 1198.47 1828.45 1183.85 1830.38 1174.5C1832.3 1165.15 1835.02 1150.75 1836.41 1142.5C1837.81 1134.25 1839.84 1120.53 1840.94 1112C1842.03 1103.47 1843.6 1089.3 1844.43 1080.5C1845.25 1071.7 1846.46 1053.92 1847.1 1041C1847.84 1026.43 1848.04 1005.72 1847.65 986.5C1847.3 969.45 1846.56 949.65 1846 942.5C1845.45 935.35 1844.31 922.75 1843.47 914.5C1842.64 906.25 1841.05 892.98 1839.95 885C1838.85 877.02 1837.03 865.1 1835.91 858.5C1834.79 851.9 1832.3 838.85 1830.39 829.5C1828.48 820.15 1824.26 802.15 1821.01 789.5C1817.76 776.85 1812.83 759.19 1810.05 750.25C1807.27 741.31 1802.48 726.91 1799.41 718.25C1796.33 709.59 1791.2 695.98 1788.01 688C1784.82 680.02 1779.86 668.1 1776.99 661.5C1774.13 654.9 1767.64 640.95 1762.58 630.5C1757.51 620.05 1749.29 604.08 1744.31 595C1739.32 585.92 1731.76 572.65 1727.51 565.5C1723.25 558.35 1713.64 543.27 1706.16 532C1698.68 520.73 1685.95 502.73 1677.88 492C1669.8 481.27 1658.13 466.43 1651.93 459C1645.73 451.57 1634.95 439.2 1627.99 431.5C1621.02 423.8 1607.94 410.12 1598.91 401.09C1589.88 392.06 1576.2 378.98 1568.5 372.01C1560.8 365.05 1548.42 354.28 1541 348.08C1533.58 341.88 1518.95 330.39 1508.5 322.56C1498.05 314.72 1482.53 303.58 1474 297.8C1465.47 292.02 1451.3 282.88 1442.5 277.48C1433.7 272.08 1419.75 263.88 1411.5 259.26C1403.25 254.64 1386.15 245.75 1373.5 239.52C1360.85 233.28 1345.1 225.84 1338.5 222.98C1331.9 220.12 1319.08 214.84 1310 211.26C1300.92 207.68 1285.17 201.85 1275 198.3C1264.83 194.76 1248.17 189.45 1238 186.5C1227.83 183.56 1212.3 179.34 1203.5 177.13C1194.7 174.92 1177.38 171.07 1165 168.59C1152.63 166.11 1133.05 162.72 1121.5 161.06C1109.95 159.41 1093.75 157.36 1085.5 156.52C1077.25 155.68 1064.42 154.53 1057 153.97C1049.58 153.41 1026.85 152.77 1006.5 152.55Z" fill="#194B9C"/>
<path d="M589 532.1C584.87 533.19 578.35 535.73 574.5 537.74C569.8 540.19 564.85 544.03 559.43 549.44C552.87 555.99 550.49 559.28 546.67 567C544.09 572.23 541.03 580.1 539.86 584.5C538.2 590.73 537.73 595.48 537.71 606C537.69 616.83 538.12 621.08 539.87 627.5C541.07 631.9 543.8 639.1 545.93 643.5C548.06 647.9 551.88 654.2 554.4 657.5C556.93 660.8 561.81 665.87 565.25 668.76C568.69 671.65 573.98 675.35 577 676.96C580.02 678.58 586.1 680.83 590.5 681.96C598.41 684 600.29 684.02 754.25 684.01L910 684C910.01 1359.93 910.36 1505.69 911.01 1509.75C911.55 1513.19 913.13 1518.81 914.52 1522.25C915.91 1525.69 919.28 1531.54 922.02 1535.25C924.76 1538.96 930.04 1544.51 933.75 1547.58C937.57 1550.74 945.27 1555.5 951.5 1558.56C958.69 1562.09 966.31 1564.89 973.5 1566.67C983.04 1569.02 986.56 1569.38 1000 1569.4C1011.02 1569.41 1018.1 1568.9 1024.5 1567.62C1029.45 1566.62 1036.65 1564.68 1040.5 1563.3C1044.35 1561.91 1050.88 1559.05 1055 1556.94C1059.12 1554.82 1065.63 1550.48 1069.45 1547.3C1073.54 1543.88 1078.57 1538.32 1081.7 1533.75C1084.61 1529.49 1088.01 1522.96 1089.25 1519.25L1091.5 1512.5L1092 684C1401.74 684.02 1403.59 684 1411.5 681.96C1415.9 680.83 1422.65 678.24 1426.5 676.21C1430.81 673.93 1436.21 669.82 1440.55 665.51C1444.43 661.65 1449.36 655.8 1451.5 652.5C1453.65 649.2 1456.86 642.9 1458.63 638.5C1460.41 634.1 1462.56 627.01 1463.43 622.75C1464.29 618.49 1465.01 611.29 1465.01 606.75C1465.02 602.21 1464.3 594.67 1463.42 590C1462.54 585.33 1460.71 578.58 1459.36 575C1458.02 571.42 1455.2 565.58 1453.1 562C1451 558.42 1446.34 552.58 1442.74 549C1439.15 545.42 1433.8 541.04 1430.85 539.26C1427.91 537.47 1422.13 534.77 1418 533.26L1410.5 530.5C599.79 530.1 596.44 530.12 589 532.1Z" fill="#194B9C"/>
</svg>
